<svg width="335" height="262" viewBox="0 0 335 262" fill="none" xmlns="http://www.w3.org/2000/svg">
<g filter="url(#filter0_d_2387_1145)">
<path d="M15 61C15 41.67 30.67 26 50 26H305V208C305 227.33 289.33 243 270 243H15V61Z" fill="white" fill-opacity="0.3" shape-rendering="crispEdges"/>
<path d="M50 27.5H303.5V208C303.5 226.502 288.502 241.5 270 241.5H16.5V61C16.5 42.4985 31.4985 27.5 50 27.5Z" stroke="white" stroke-width="3" shape-rendering="crispEdges"/>
</g>
<g filter="url(#filter1_d_2387_1145)">
<path d="M311.046 11C306.602 11 303 14.6021 303 19.0455V47.566V47.566C303 47.9598 303.521 48.0998 303.718 47.759L318.008 23.0766C321.114 17.7129 317.243 11 311.046 11V11Z" fill="white"/>
</g>
<defs>
<filter id="filter0_d_2387_1145" x="0" y="15" width="320" height="247" filterUnits="userSpaceOnUse" color-interpolation-filters="sRGB">
<feFlood flood-opacity="0" result="BackgroundImageFix"/>
<feColorMatrix in="SourceAlpha" type="matrix" values="0 0 0 0 0 0 0 0 0 0 0 0 0 0 0 0 0 0 127 0" result="hardAlpha"/>
<feOffset dy="4"/>
<feGaussianBlur stdDeviation="7.5"/>
<feComposite in2="hardAlpha" operator="out"/>
<feColorMatrix type="matrix" values="0 0 0 0 1 0 0 0 0 1 0 0 0 0 1 0 0 0 0.35 0"/>
<feBlend mode="normal" in2="BackgroundImageFix" result="effect1_dropShadow_2387_1145"/>
<feBlend mode="normal" in="SourceGraphic" in2="effect1_dropShadow_2387_1145" result="shape"/>
</filter>
<filter id="filter1_d_2387_1145" x="288" y="0" width="46.103" height="66.9518" filterUnits="userSpaceOnUse" color-interpolation-filters="sRGB">
<feFlood flood-opacity="0" result="BackgroundImageFix"/>
<feColorMatrix in="SourceAlpha" type="matrix" values="0 0 0 0 0 0 0 0 0 0 0 0 0 0 0 0 0 0 127 0" result="hardAlpha"/>
<feOffset dy="4"/>
<feGaussianBlur stdDeviation="7.5"/>
<feComposite in2="hardAlpha" operator="out"/>
<feColorMatrix type="matrix" values="0 0 0 0 1 0 0 0 0 1 0 0 0 0 1 0 0 0 0.35 0"/>
<feBlend mode="normal" in2="BackgroundImageFix" result="effect1_dropShadow_2387_1145"/>
<feBlend mode="normal" in="SourceGraphic" in2="effect1_dropShadow_2387_1145" result="shape"/>
</filter>
</defs>
</svg>
